<svg width="20" height="19" viewBox="0 0 20 19" fill="none" xmlns="http://www.w3.org/2000/svg">
<path d="M8.70189 12.6044L8.83976 11.9942H8.21419H2.1501C1.3418 11.9942 0.746759 11.4027 0.728473 10.7564L0.733098 10.7224L0.768229 10.4638L0.72804 10.4268V8.95748C0.72804 8.80318 0.759125 8.6595 0.819675 8.51489L3.71816 2.28968L3.71819 2.28969L3.72036 2.28491C3.92207 1.83952 4.41789 1.49995 5.03318 1.49995H13.6824C14.5035 1.49995 15.1045 2.11026 15.1045 2.76829V11.61C15.1045 11.9457 14.96 12.255 14.704 12.4841L14.704 12.4841L14.6987 12.489L8.71206 18.0052L8.03376 17.387C8.03351 17.3868 8.03325 17.3865 8.03299 17.3863C7.87288 17.2386 7.7791 17.0416 7.77272 16.8397L7.79557 16.6156L8.70189 12.6044Z" stroke="#0F0F0F"/>
<path d="M15.1807 11.5603H18.9014L18.9013 1.45788H15.1121M12.2767 1.45788H15.1121M15.1121 2.61854V1.45788" stroke="#0F0F0F"/>
</svg>
