<svg width="20" height="18" viewBox="0 0 20 18" fill="none" xmlns="http://www.w3.org/2000/svg">
<path d="M11.1008 6.079L10.963 6.68919H11.5885H17.6526C18.4609 6.68919 19.056 7.2807 19.0743 7.92691L19.0696 7.96095L19.0345 8.21952L19.0747 8.2565V9.72587C19.0747 9.88017 19.0436 10.0238 18.9831 10.1685L16.0846 16.3937L16.0845 16.3937L16.0824 16.3984C15.8807 16.8438 15.3848 17.1834 14.7696 17.1834H6.1203C5.29926 17.1834 4.69824 16.5731 4.69824 15.9151V7.07336C4.69824 6.73763 4.84272 6.42839 5.09873 6.19922L5.09877 6.19926L5.10406 6.19439L11.0907 0.678182L11.769 1.29634C11.7692 1.29658 11.7695 1.29681 11.7697 1.29705C11.9299 1.44471 12.0236 1.64171 12.03 1.8436L12.0072 2.0678L11.1008 6.079Z" stroke="#0F0F0F"/>
<path d="M4.62205 7.12305H0.901367L0.901444 17.2255H4.69062M7.526 17.2255H4.69062M4.69062 16.0648V17.2255" stroke="#0F0F0F"/>
</svg>
