<svg width="24" height="25" viewBox="0 0 24 25" fill="none" xmlns="http://www.w3.org/2000/svg">
<path fill-rule="evenodd" clip-rule="evenodd" d="M2.30859 10.0809C3.67891 10.0809 5.03581 10.3423 6.30181 10.8501C7.56782 11.3579 8.71814 12.1023 9.6871 13.0406C10.6561 13.979 11.4247 15.093 11.9491 16.319C12.4735 17.545 12.7434 18.8591 12.7434 20.1861H11.0042C11.0042 19.0803 10.7793 17.9852 10.3423 16.9635C9.90533 15.9418 9.26481 15.0135 8.45735 14.2316C7.64988 13.4496 6.69128 12.8293 5.63628 12.4061C4.58127 11.9829 3.45052 11.7651 2.30859 11.7651V10.0809Z" fill="#0A0A0A"/>
<path fill-rule="evenodd" clip-rule="evenodd" d="M2.30859 13.4493C3.22214 13.4493 4.12673 13.6235 4.97074 13.9621C5.81474 14.3006 6.58162 14.7969 7.2276 15.4225C7.87357 16.048 8.38598 16.7907 8.73558 17.608C9.08518 18.4254 9.26512 19.3014 9.26512 20.1861H7.52599C7.52599 19.5226 7.39103 18.8656 7.12883 18.2526C6.86664 17.6396 6.48233 17.0826 5.99785 16.6134C5.51337 16.1442 4.93821 15.772 4.3052 15.5181C3.6722 15.2642 2.99375 15.1335 2.30859 15.1335V13.4493Z" fill="#0A0A0A"/>
<path fill-rule="evenodd" clip-rule="evenodd" d="M2.30859 20.1862L2.30859 16.8178C2.76537 16.8178 3.21766 16.9049 3.63967 17.0742C4.00196 17.2195 4.33584 17.4229 4.62743 17.6755C4.67549 17.7171 4.7224 17.7601 4.7681 17.8044C4.81379 17.8486 4.85815 17.894 4.90114 17.9406C5.16195 18.223 5.37202 18.5463 5.52209 18.8971C5.69689 19.3058 5.78685 19.7438 5.78685 20.1862L2.30859 20.1862Z" fill="#0A0A0A"/>
<path d="M2.9126 8.00589V4.81384H21.6915V19.6317H14.8744" stroke="black" stroke-width="1.2"/>
</svg>
