<svg width="90" height="27" viewBox="0 0 90 27" fill="none" xmlns="http://www.w3.org/2000/svg">
<path d="M28.3498 6.6915C28.0258 5.47651 27.0673 4.51801 25.8478 4.18951C23.6428 3.60001 14.7958 3.60001 14.7958 3.60001C14.7958 3.60001 5.95334 3.60001 3.74384 4.18951C2.52884 4.51351 1.57034 5.47201 1.24184 6.6915C0.652344 8.8965 0.652344 13.5 0.652344 13.5C0.652344 13.5 0.652344 18.1035 1.24184 20.3085C1.56584 21.5235 2.52434 22.482 3.74384 22.8105C5.95334 23.4 14.7958 23.4 14.7958 23.4C14.7958 23.4 23.6428 23.4 25.8478 22.8105C27.0628 22.4865 28.0213 21.528 28.3498 20.3085C28.9393 18.1035 28.9393 13.5 28.9393 13.5C28.9393 13.5 28.9393 8.8965 28.3498 6.6915Z" fill="#FF0000"/>
<path d="M11.9697 17.7435L19.3182 13.5L11.9697 9.2565V17.7435Z" fill="white"/>
<path d="M41.7101 21.6135C41.1521 21.2355 40.7516 20.6505 40.5176 19.854C40.2836 19.0575 40.1621 18 40.1621 16.677V14.877C40.1621 13.5405 40.2971 12.4695 40.5671 11.6595C40.8371 10.8495 41.2601 10.26 41.8316 9.89101C42.4031 9.52201 43.1546 9.33301 44.0861 9.33301C45.0041 9.33301 45.7376 9.52201 46.2911 9.90001C46.8446 10.278 47.2496 10.8675 47.5061 11.6685C47.7626 12.4695 47.8886 13.5405 47.8886 14.8725V16.6725C47.8886 17.9955 47.7626 19.0575 47.5151 19.8585C47.2676 20.6595 46.8626 21.249 46.3001 21.618C45.7421 21.987 44.9816 22.176 44.0231 22.176C43.0421 22.1805 42.2681 21.9915 41.7101 21.6135ZM44.8466 19.6695C44.9996 19.2645 45.0806 18.603 45.0806 17.6895V13.824C45.0806 12.933 45.0041 12.285 44.8466 11.871C44.6936 11.4615 44.4191 11.2545 44.0276 11.2545C43.6496 11.2545 43.3841 11.4615 43.2266 11.871C43.0736 12.2805 42.9926 12.933 42.9926 13.824V17.6895C42.9926 18.6075 43.0646 19.269 43.2131 19.6695C43.3616 20.0745 43.6316 20.277 44.0231 20.277C44.4191 20.277 44.6891 20.0745 44.8466 19.6695Z" fill="#0F0F0F"/>
<path d="M84.6719 16.7085V17.334C84.6719 18.1305 84.6944 18.7245 84.7439 19.125C84.7889 19.521 84.8879 19.8135 85.0364 19.9935C85.1849 20.1735 85.4144 20.268 85.7249 20.268C86.1434 20.268 86.4314 20.106 86.5844 19.782C86.7374 19.458 86.8229 18.918 86.8364 18.162L89.2439 18.3015C89.2574 18.4095 89.2619 18.558 89.2619 18.747C89.2619 19.8945 88.9469 20.7495 88.3214 21.3165C87.6959 21.8835 86.8094 22.167 85.6619 22.167C84.2849 22.167 83.3219 21.735 82.7684 20.871C82.2149 20.007 81.9404 18.675 81.9404 16.866V14.7015C81.9404 12.8385 82.2284 11.484 82.7999 10.6245C83.3714 9.76951 84.3524 9.34201 85.7429 9.34201C86.7014 9.34201 87.4349 9.51751 87.9479 9.86851C88.4609 10.2195 88.8209 10.764 89.0324 11.5065C89.2394 12.249 89.3474 13.275 89.3474 14.58V16.704H84.6719V16.7085ZM85.0274 11.4885C84.8879 11.664 84.7934 11.952 84.7439 12.348C84.6944 12.744 84.6719 13.3515 84.6719 14.157V15.048H86.7149V14.157C86.7149 13.3605 86.6879 12.7575 86.6339 12.348C86.5799 11.9385 86.4809 11.646 86.3414 11.4795C86.2019 11.313 85.9814 11.2275 85.6844 11.2275C85.3874 11.223 85.1669 11.313 85.0274 11.4885Z" fill="#0F0F0F"/>
<path d="M34.9153 16.4745L31.7383 5.00401H34.5103L35.6218 10.2015C35.9053 11.484 36.1123 12.573 36.2473 13.4775H36.3283C36.4228 12.8295 36.6298 11.745 36.9538 10.2195L38.1058 4.99951H40.8778L37.6648 16.4745V21.978H34.9153V16.4745Z" fill="#0F0F0F"/>
<path d="M56.9023 9.57602V21.9735H54.7198L54.4768 20.457H54.4183C53.8243 21.6045 52.9333 22.176 51.7498 22.176C50.9263 22.176 50.3188 21.906 49.9273 21.366C49.5358 20.826 49.3423 19.9845 49.3423 18.837V9.57602H52.1323V18.6795C52.1323 19.233 52.1908 19.629 52.3123 19.863C52.4338 20.097 52.6363 20.2185 52.9198 20.2185C53.1628 20.2185 53.3968 20.1465 53.6173 19.998C53.8378 19.8495 54.0043 19.6605 54.1123 19.431V9.57602H56.9023Z" fill="#0F0F0F"/>
<path d="M71.2212 9.57602V21.9735H69.0386L68.7957 20.457H68.7371C68.1431 21.6045 67.2521 22.176 66.0686 22.176C65.2451 22.176 64.6376 21.906 64.2461 21.366C63.8546 20.826 63.6611 19.9845 63.6611 18.837V9.57602H66.4511V18.6795C66.4511 19.233 66.5096 19.629 66.6311 19.863C66.7526 20.097 66.9551 20.2185 67.2386 20.2185C67.4816 20.2185 67.7156 20.1465 67.9361 19.998C68.1566 19.8495 68.3231 19.6605 68.4311 19.431V9.57602H71.2212Z" fill="#0F0F0F"/>
<path d="M64.4894 7.2495H61.7174V21.9735H58.9859V7.2495H56.2139V5.004H64.4849V7.2495H64.4894Z" fill="#0F0F0F"/>
<path d="M80.4598 11.5605C80.2888 10.7775 80.0188 10.2105 79.6408 9.85951C79.2628 9.50851 78.7453 9.33301 78.0838 9.33301C77.5708 9.33301 77.0938 9.47701 76.6483 9.76951C76.2028 10.0575 75.8608 10.44 75.6178 10.9125H75.5953V4.37851H72.9043V21.978H75.2083L75.4918 20.8035H75.5503C75.7663 21.222 76.0903 21.5505 76.5223 21.7935C76.9543 22.0365 77.4313 22.158 77.9578 22.158C78.9028 22.158 79.5958 21.7215 80.0413 20.853C80.4868 19.9845 80.7073 18.6255 80.7073 16.776V14.814C80.7118 13.428 80.6263 12.3435 80.4598 11.5605ZM77.8993 16.6185C77.8993 17.523 77.8633 18.2295 77.7868 18.7425C77.7148 19.2555 77.5888 19.62 77.4133 19.836C77.2378 20.052 77.0038 20.16 76.7068 20.16C76.4773 20.16 76.2658 20.106 76.0678 19.998C75.8743 19.89 75.7123 19.728 75.5908 19.512V12.4695C75.6853 12.132 75.8473 11.8575 76.0768 11.6415C76.3063 11.4255 76.5538 11.3175 76.8238 11.3175C77.1073 11.3175 77.3278 11.43 77.4808 11.6505C77.6338 11.871 77.7418 12.249 77.8048 12.771C77.8633 13.2975 77.8948 14.0445 77.8948 15.0165V16.6185H77.8993Z" fill="#0F0F0F"/>
</svg>
