<svg width="24" height="25" viewBox="0 0 24 25" fill="none" xmlns="http://www.w3.org/2000/svg">
<path d="M10 20.52H14C14 21.62 13.1 22.52 12 22.52C10.9 22.52 10 21.62 10 20.52ZM20 17.87V19.52H4V17.87L6 15.99V10.84C6 7.91996 7.56 5.61997 10 4.85997V4.47996C10 3.05997 11.49 1.97996 12.99 2.71996C13.64 3.03996 14 3.74996 14 4.47996V4.86996C16.44 5.61996 18 7.92997 18 10.85V16L20 17.87ZM19 18.29L17 16.41V10.94C17 8.46996 15.81 6.57997 13.87 5.83997C12.61 5.30997 11.23 5.33996 10.03 5.86996C8.15 6.62996 7 8.50996 7 10.94V16.41L5 18.29V18.52H19V18.29Z" fill="#0F0F0F"/>
</svg>
