<svg width="24" height="25" viewBox="0 0 24 25" fill="none" xmlns="http://www.w3.org/2000/svg">
<path d="M20.9349 20.73L15.3449 15.14C16.4149 13.91 17.0649 12.31 17.0649 10.56C17.0649 6.69 13.9349 3.56 10.0649 3.56C6.19494 3.56 3.06494 6.69 3.06494 10.56C3.06494 14.43 6.19494 17.56 10.0649 17.56C11.8149 17.56 13.4149 16.91 14.6449 15.85L20.2349 21.44L20.9349 20.73ZM10.0649 16.56C6.75494 16.56 4.06494 13.87 4.06494 10.56C4.06494 7.25 6.75494 4.56 10.0649 4.56C13.3749 4.56 16.0649 7.25 16.0649 10.56C16.0649 13.87 13.3749 16.56 10.0649 16.56Z" fill="#0F0F0F"/>
</svg>
