<svg width="33" height="33" viewBox="0 0 33 33" fill="none" xmlns="http://www.w3.org/2000/svg">
<path fill-rule="evenodd" clip-rule="evenodd" d="M16.5 30.5205C24.3185 30.5205 30.6567 24.1823 30.6567 16.3638C30.6567 8.54525 24.3185 2.20709 16.5 2.20709C8.68148 2.20709 2.34332 8.54525 2.34332 16.3638C2.34332 24.1823 8.68148 30.5205 16.5 30.5205ZM16.5 32.29C25.2958 32.29 32.4263 25.1596 32.4263 16.3638C32.4263 7.56793 25.2958 0.4375 16.5 0.4375C7.70416 0.4375 0.57373 7.56793 0.57373 16.3638C0.57373 25.1596 7.70416 32.29 16.5 32.29Z" fill="#0F0F0F"/>
<path fill-rule="evenodd" clip-rule="evenodd" d="M26.0559 17.9566H6.94434V15.5676H26.0559V17.9566Z" fill="#0F0F0F"/>
<path fill-rule="evenodd" clip-rule="evenodd" d="M14.9074 25.9196L14.9074 6.80811L17.2964 6.80811L17.2964 25.9196L14.9074 25.9196Z" fill="#0F0F0F"/>
</svg>
