<svg width="25" height="25" viewBox="0 0 25 25" fill="none" xmlns="http://www.w3.org/2000/svg">
<path fill-rule="evenodd" clip-rule="evenodd" d="M5.03182 8.41169C3.16302 9.45899 2.52273 11.7785 3.60168 13.5925C4.20495 14.6067 5.14105 15.2913 6.14493 15.532C4.76163 16.6992 4.37747 18.6901 5.3282 20.2885C6.40715 22.1025 8.79677 22.724 10.6656 21.6767L19.9685 16.4632C21.8373 15.4159 22.4776 13.0964 21.3986 11.2824C20.8034 10.2817 19.8093 9.64393 18.7239 9.449C20.2136 8.29952 20.6523 6.23434 19.6721 4.58639C18.5932 2.77241 16.2035 2.1509 14.3347 3.1982L5.03182 8.41169ZM16.5524 10.7138L16.5525 10.714L16.5805 10.6983C17.9775 9.93675 19.7494 10.406 20.5527 11.7565C21.3619 13.117 20.8817 14.8566 19.4801 15.6421L10.1772 20.8556C8.77556 21.6411 6.98335 21.1749 6.17413 19.8144C5.36492 18.454 5.84514 16.7143 7.24674 15.9288L8.48377 15.2356C8.49456 15.2297 8.50533 15.2237 8.51607 15.2177L8.02767 14.3966C8.02757 14.3967 8.02747 14.3967 8.02737 14.3968L8.02727 14.3966L7.99971 14.412C6.73676 15.0984 5.25089 14.4689 4.44762 13.1184C3.6384 11.7579 4.11863 10.0183 5.52022 9.23282L14.8231 4.01933C16.2247 3.23385 18.017 3.69999 18.8262 5.06047C19.6354 6.42095 19.1552 8.16059 17.7536 8.94607L16.0969 9.8745C16.085 9.88101 16.0731 9.88758 16.0613 9.89423L16.5497 10.7153C16.5506 10.7148 16.5515 10.7143 16.5524 10.7138Z" fill="#0F0F0F"/>
<path d="M10.6289 10.1923L15.9239 13.1597L10.6289 16.1271L10.6289 10.1923Z" fill="#0F0F0F"/>
</svg>
